<svg width="222" height="64" viewBox="0 0 222 64" fill="none" xmlns="http://www.w3.org/2000/svg">
<path d="M213.579 64H8.73242C4.22786 64 0.538574 60.398 0.538574 56V8C0.538574 3.602 4.22786 0 8.73242 0H213.579C218.083 0 221.773 3.602 221.773 8V56C221.773 60.398 218.083 64 213.579 64Z" fill="#201F20"/>
<path d="M213.579 1.282C217.372 1.282 220.459 4.296 220.459 8V56C220.459 59.704 217.372 62.718 213.579 62.718H8.73242C4.93867 62.718 1.85164 59.704 1.85164 56V8C1.85164 4.296 4.93867 1.282 8.73242 1.282H213.579ZM213.579 0H8.73242C4.22786 0 0.538574 3.602 0.538574 8V56C0.538574 60.398 4.22786 64 8.73242 64H213.579C218.083 64 221.773 60.398 221.773 56V8C221.773 3.602 218.083 0 213.579 0Z" fill="#A6A6A6"/>
<path d="M78.245 16.39C78.245 17.726 77.8353 18.796 77.0282 19.594C76.1003 20.54 74.8917 21.016 73.4106 21.016C71.9952 21.016 70.7866 20.532 69.7951 19.578C68.8016 18.61 68.3059 17.422 68.3059 16C68.3059 14.578 68.8016 13.39 69.7951 12.43C70.7866 11.468 71.9952 10.984 73.4106 10.984C74.1153 10.984 74.7872 11.126 75.4284 11.39C76.0675 11.656 76.5878 12.016 76.9647 12.46L76.1085 13.304C75.4509 12.546 74.5557 12.172 73.4106 12.172C72.3782 12.172 71.483 12.524 70.7231 13.234C69.9713 13.946 69.5944 14.868 69.5944 16C69.5944 17.132 69.9713 18.062 70.7231 18.774C71.483 19.476 72.3782 19.836 73.4106 19.836C74.5066 19.836 75.4284 19.476 76.1556 18.766C76.6349 18.296 76.9074 17.648 76.9791 16.82H73.4106V15.664H78.1713C78.2286 15.914 78.245 16.156 78.245 16.39Z" fill="white"/>
<path d="M85.7977 12.382H81.3258V15.422H85.3572V16.578H81.3258V19.618H85.7977V20.796H80.0599V11.204H85.7977V12.382Z" fill="white"/>
<path d="M91.1277 20.796H89.8617V12.382H87.1188V11.204H93.8726V12.382H91.1277V20.796Z" fill="white"/>
<path d="M98.7603 20.796V11.204H100.024V20.796H98.7603Z" fill="white"/>
<path d="M105.627 20.796H104.371V12.382H101.618V11.204H108.38V12.382H105.627V20.796Z" fill="white"/>
<path d="M121.166 19.562C120.197 20.532 118.997 21.016 117.565 21.016C116.125 21.016 114.925 20.532 113.956 19.562C112.989 18.594 112.507 17.406 112.507 16C112.507 14.594 112.989 13.406 113.956 12.438C114.925 11.468 116.125 10.984 117.565 10.984C118.989 10.984 120.189 11.468 121.158 12.446C122.133 13.422 122.615 14.602 122.615 16C122.615 17.406 122.133 18.594 121.166 19.562ZM114.892 18.758C115.621 19.476 116.508 19.836 117.565 19.836C118.614 19.836 119.509 19.476 120.23 18.758C120.957 18.04 121.326 17.118 121.326 16C121.326 14.882 120.957 13.96 120.23 13.242C119.509 12.524 118.614 12.164 117.565 12.164C116.508 12.164 115.621 12.524 114.892 13.242C114.165 13.96 113.796 14.882 113.796 16C113.796 17.118 114.165 18.04 114.892 18.758Z" fill="white"/>
<path d="M124.391 20.796V11.204H125.927L130.704 18.664H130.759L130.704 16.82V11.204H131.968V20.796H130.649L125.646 12.968H125.591L125.646 14.82V20.796H124.391Z" fill="white"/>
<path d="M112.196 34.8041C108.347 34.8041 105.203 37.6641 105.203 41.6101C105.203 45.5241 108.347 48.414 112.196 48.414C116.053 48.414 119.198 45.5241 119.198 41.6101C119.198 37.6641 116.053 34.8041 112.196 34.8041ZM112.196 45.7341C110.084 45.7341 108.267 44.0321 108.267 41.6101C108.267 39.1561 110.084 37.4841 112.196 37.4841C114.308 37.4841 116.133 39.1561 116.133 41.6101C116.133 44.0321 114.308 45.7341 112.196 45.7341ZM96.9372 34.8041C93.0799 34.8041 89.9437 37.6641 89.9437 41.6101C89.9437 45.5241 93.0799 48.414 96.9372 48.414C100.792 48.414 103.931 45.5241 103.931 41.6101C103.931 37.6641 100.792 34.8041 96.9372 34.8041ZM96.9372 45.7341C94.8232 45.7341 93 44.0321 93 41.6101C93 39.1561 94.8232 37.4841 96.9372 37.4841C99.0491 37.4841 100.866 39.1561 100.866 41.6101C100.866 44.0321 99.0491 45.7341 96.9372 45.7341ZM78.7796 36.89V39.7821H85.8529C85.646 41.3981 85.093 42.5861 84.2449 43.4141C83.2125 44.4141 81.6044 45.5241 78.7796 45.5241C74.4266 45.5241 71.018 42.0941 71.018 37.8441C71.018 33.5941 74.4266 30.1641 78.7796 30.1641C81.1333 30.1641 82.8458 31.0621 84.1097 32.2261L86.1971 30.1881C84.4293 28.5401 82.0776 27.2741 78.7796 27.2741C72.8104 27.2741 67.7937 32.0161 67.7937 37.8441C67.7937 43.6721 72.8104 48.414 78.7796 48.414C82.0059 48.414 84.4293 47.3821 86.3343 45.4461C88.2865 43.5401 88.8949 40.8601 88.8949 38.6961C88.8949 38.0241 88.8376 37.406 88.7351 36.89H78.7796ZM153.028 39.132C152.453 37.61 150.677 34.8041 147.059 34.8041C143.474 34.8041 140.49 37.5621 140.49 41.6101C140.49 45.4221 143.443 48.414 147.403 48.414C150.605 48.414 152.453 46.508 153.213 45.398L150.836 43.8521C150.044 44.9841 148.964 45.7341 147.403 45.7341C145.852 45.7341 144.74 45.0401 144.027 43.6721L153.35 39.906L153.028 39.132ZM143.523 41.398C143.443 38.774 145.611 37.4301 147.163 37.4301C148.38 37.4301 149.413 38.0241 149.757 38.8741L143.523 41.398ZM135.946 48.0001H139.011V28.0001H135.946V48.0001ZM130.927 36.32H130.825C130.137 35.5241 128.824 34.8041 127.16 34.8041C123.67 34.8041 120.478 37.7961 120.478 41.632C120.478 45.446 123.67 48.414 127.16 48.414C128.824 48.414 130.137 47.688 130.825 46.868H130.927V47.8441C130.927 50.4461 129.504 51.844 127.207 51.844C125.335 51.844 124.174 50.524 123.694 49.414L121.029 50.5001C121.797 52.3041 123.831 54.5241 127.207 54.5241C130.8 54.5241 133.832 52.4601 133.832 47.4381V35.2181H130.927V36.32ZM127.422 45.7341C125.31 45.7341 123.543 44.008 123.543 41.632C123.543 39.234 125.31 37.4841 127.422 37.4841C129.504 37.4841 131.144 39.234 131.144 41.632C131.144 44.008 129.504 45.7341 127.422 45.7341ZM167.376 28.0001H160.046V48.0001H163.102V40.4221H167.376C170.77 40.4221 174.099 38.0241 174.099 34.2101C174.099 30.3981 170.762 28.0001 167.376 28.0001ZM167.455 37.64H163.102V30.7821H167.455C169.737 30.7821 171.04 32.6321 171.04 34.2101C171.04 35.7581 169.737 37.64 167.455 37.64ZM186.348 34.766C184.14 34.766 181.844 35.7181 180.9 37.828L183.612 38.9381C184.196 37.8281 185.269 37.468 186.404 37.468C187.989 37.468 189.597 38.3981 189.622 40.0401V40.2501C189.069 39.9381 187.885 39.4761 186.428 39.4761C183.507 39.4761 180.531 41.0461 180.531 43.9761C180.531 46.6561 182.923 48.3821 185.613 48.3821C187.67 48.3821 188.805 47.4761 189.517 46.4221H189.622V47.968H192.574V40.2961C192.574 36.7501 189.862 34.766 186.348 34.766ZM185.98 45.7261C184.98 45.7261 183.587 45.2421 183.587 44.0321C183.587 42.4841 185.324 41.89 186.828 41.89C188.174 41.89 188.805 42.1801 189.622 42.5621C189.382 44.4141 187.75 45.7261 185.98 45.7261ZM203.328 35.2041L199.815 43.8741H199.711L196.079 35.2041H192.783L198.24 47.3201L195.126 54.0621H198.32L206.729 35.2041H203.328ZM175.778 48.0001H178.843V28.0001H175.778V48.0001Z" fill="white"/>
<path d="M17.6391 12.062C17.1577 12.554 16.8792 13.32 16.8792 14.312V49.696C16.8792 50.688 17.1577 51.454 17.6391 51.946L17.7579 52.054L38.0664 32.234V31.766L17.7579 11.946L17.6391 12.062Z" fill="url(#paint0_linear_4031_8699)"/>
<path d="M44.8283 38.844L38.0664 32.234V31.766L44.8365 25.156L44.9881 25.242L53.0058 29.696C55.2939 30.96 55.2939 33.04 53.0058 34.312L44.9881 38.758L44.8283 38.844Z" fill="url(#paint1_linear_4031_8699)"/>
<path d="M44.9881 38.758L38.0664 32L17.6391 51.946C18.3991 52.726 19.6385 52.82 21.0478 52.04L44.9881 38.758Z" fill="url(#paint2_linear_4031_8699)"/>
<path d="M44.9881 25.242L21.0478 11.96C19.6385 11.188 18.3991 11.282 17.6391 12.062L38.0664 32L44.9881 25.242Z" fill="url(#paint3_linear_4031_8699)"/>
<defs>
<linearGradient id="paint0_linear_4031_8699" x1="202.944" y1="3.17466" x2="190.437" y2="87.0031" gradientUnits="userSpaceOnUse">
<stop stop-color="#00A0FF"/>
<stop offset="0.0066" stop-color="#00A1FF"/>
<stop offset="0.2601" stop-color="#00BEFF"/>
<stop offset="0.5122" stop-color="#00D2FF"/>
<stop offset="0.7604" stop-color="#00DFFF"/>
<stop offset="1" stop-color="#00E3FF"/>
</linearGradient>
<linearGradient id="paint1_linear_4031_8699" x1="238.555" y1="32.0105" x2="-288.155" y2="32.0105" gradientUnits="userSpaceOnUse">
<stop stop-color="#FFE000"/>
<stop offset="0.4087" stop-color="#FFBD00"/>
<stop offset="0.7754" stop-color="#FFA500"/>
<stop offset="1" stop-color="#FF9C00"/>
</linearGradient>
<linearGradient id="paint2_linear_4031_8699" x1="191.326" y1="75.4247" x2="116.817" y2="273.935" gradientUnits="userSpaceOnUse">
<stop stop-color="#FF3A44"/>
<stop offset="1" stop-color="#C31162"/>
</linearGradient>
<linearGradient id="paint3_linear_4031_8699" x1="12.4971" y1="63.7181" x2="28.7526" y2="47.0688" gradientUnits="userSpaceOnUse">
<stop stop-color="#32A071"/>
<stop offset="0.0685" stop-color="#2DA771"/>
<stop offset="0.4762" stop-color="#15CF74"/>
<stop offset="0.8009" stop-color="#06E775"/>
<stop offset="1" stop-color="#00F076"/>
</linearGradient>
</defs>
</svg>
