<svg width="222" height="64" viewBox="0 0 222 64" fill="none" xmlns="http://www.w3.org/2000/svg">
<path d="M220.308 56.6191C220.308 60.0298 217.487 62.7925 213.999 62.7925H7.54763C4.06095 62.7925 1.23079 60.0298 1.23079 56.6191V7.38894C1.23079 3.97991 4.06095 1.20756 7.54763 1.20756H213.997C217.487 1.20756 220.306 3.97991 220.306 7.38894L220.308 56.6191Z" fill="#201F20"/>
<path d="M213.333 1.282C217.132 1.282 220.224 4.296 220.224 8V56C220.224 59.704 217.132 62.718 213.333 62.718H8.20513C4.40615 62.718 1.31487 59.704 1.31487 56V8C1.31487 4.296 4.40615 1.282 8.20513 1.282H213.333ZM213.333 0H8.20513C3.69436 0 0 3.602 0 8V56C0 60.398 3.69436 64 8.20513 64H213.333C217.844 64 221.538 60.398 221.538 56V8C221.538 3.602 217.844 0 213.333 0Z" fill="#A6A6A6"/>
<path d="M49.4409 31.6544C49.3933 26.4976 53.7716 23.9888 53.9718 23.872C51.4922 20.3472 47.6489 19.8656 46.2983 19.8272C43.0704 19.496 39.9393 21.7104 38.295 21.7104C36.6179 21.7104 34.0858 19.8592 31.3568 19.9136C27.845 19.9664 24.5597 21.9488 22.7578 25.0272C19.0392 31.304 21.8126 40.528 25.3752 45.6016C27.1574 48.0864 29.2399 50.8608 31.9656 50.7632C34.6323 50.656 35.6284 49.1056 38.8464 49.1056C42.0349 49.1056 42.9703 50.7632 45.7502 50.7008C48.6122 50.656 50.414 48.2048 52.1338 45.6976C54.1933 42.8496 55.0204 40.0448 55.0532 39.9008C54.9859 39.8784 49.495 37.8352 49.4409 31.6544Z" fill="white"/>
<path d="M44.1896 16.4896C45.6239 14.7408 46.6052 12.3616 46.3328 9.94717C44.2569 10.0368 41.6608 11.3472 40.1658 13.0576C38.8431 14.5648 37.6616 17.0352 37.9668 19.3584C40.2987 19.528 42.693 18.2112 44.1896 16.4896Z" fill="white"/>
<path d="M88.0328 50.4064H84.3061L82.2646 44.152H75.1688L73.2242 50.4064H69.5959L76.6261 29.1136H80.9682L88.0328 50.4064ZM81.6492 41.528L79.8031 35.968C79.6078 35.4 79.2418 34.0624 78.7019 31.9568H78.6363C78.4213 32.8624 78.0751 34.2 77.5992 35.968L75.7859 41.528H81.6492Z" fill="white"/>
<path d="M106.112 42.5408C106.112 45.152 105.388 47.216 103.941 48.7312C102.645 50.08 101.035 50.7536 99.113 50.7536C97.0388 50.7536 95.5487 50.0272 94.6412 48.5744H94.5756V56.6624H91.0769V40.1072C91.0769 38.4656 91.0326 36.7808 90.9473 35.0528H94.0242L94.2195 37.4864H94.2852C95.4519 35.6528 97.2226 34.7376 99.5988 34.7376C101.456 34.7376 103.007 35.4528 104.248 36.8848C105.492 38.3184 106.112 40.2032 106.112 42.5408ZM102.548 42.6656C102.548 41.1712 102.203 39.9392 101.511 38.9696C100.754 37.9584 99.7383 37.4528 98.4648 37.4528C97.6017 37.4528 96.8173 37.7344 96.1165 38.2896C95.4142 38.8496 94.9547 39.5808 94.7397 40.4864C94.6314 40.9088 94.5773 41.2544 94.5773 41.5264V44.0864C94.5773 45.2032 94.9284 46.1456 95.6308 46.9152C96.3332 47.6848 97.2456 48.0688 98.368 48.0688C99.6858 48.0688 100.711 47.5728 101.445 46.584C102.18 45.5936 102.548 44.288 102.548 42.6656Z" fill="white"/>
<path d="M124.224 42.5408C124.224 45.152 123.5 47.216 122.051 48.7312C120.756 50.08 119.147 50.7536 117.225 50.7536C115.151 50.7536 113.661 50.0272 112.755 48.5744H112.689V56.6624H109.191V40.1072C109.191 38.4656 109.146 36.7808 109.061 35.0528H112.138L112.333 37.4864H112.399C113.564 35.6528 115.335 34.7376 117.712 34.7376C119.568 34.7376 121.119 35.4528 122.363 36.8848C123.602 38.3184 124.224 40.2032 124.224 42.5408ZM120.66 42.6656C120.66 41.1712 120.313 39.9392 119.621 38.9696C118.864 37.9584 117.852 37.4528 116.577 37.4528C115.712 37.4528 114.929 37.7344 114.227 38.2896C113.524 38.8496 113.067 39.5808 112.852 40.4864C112.745 40.9088 112.689 41.2544 112.689 41.5264V44.0864C112.689 45.2032 113.04 46.1456 113.739 46.9152C114.442 47.6832 115.354 48.0688 116.48 48.0688C117.798 48.0688 118.823 47.5728 119.557 46.584C120.292 45.5936 120.66 44.288 120.66 42.6656Z" fill="white"/>
<path d="M144.474 44.4352C144.474 46.2464 143.829 47.72 142.535 48.8576C141.112 50.1008 139.131 50.7216 136.586 50.7216C134.236 50.7216 132.352 50.28 130.926 49.3952L131.737 46.552C133.273 47.4576 134.958 47.912 136.794 47.912C138.112 47.912 139.138 47.6208 139.875 47.0416C140.608 46.4624 140.974 45.6848 140.974 44.7152C140.974 43.8512 140.672 43.1232 140.066 42.5328C139.464 41.9424 138.458 41.3936 137.054 40.8864C133.23 39.496 131.32 37.4592 131.32 34.7808C131.32 33.0304 131.989 31.5952 133.33 30.4784C134.666 29.36 136.448 28.8016 138.677 28.8016C140.664 28.8016 142.315 29.1392 143.632 29.8128L142.758 32.5936C141.527 31.9408 140.135 31.6144 138.578 31.6144C137.347 31.6144 136.386 31.9104 135.696 32.4992C135.114 33.0256 134.822 33.6672 134.822 34.4272C134.822 35.2688 135.155 35.9648 135.824 36.512C136.407 37.0176 137.465 37.5648 139.001 38.1552C140.88 38.8928 142.261 39.7552 143.148 40.744C144.033 41.7296 144.474 42.9632 144.474 44.4352Z" fill="white"/>
<path d="M156.042 37.6128H152.185V45.0672C152.185 46.9632 152.865 47.9104 154.227 47.9104C154.852 47.9104 155.371 47.8576 155.781 47.752L155.878 50.3424C155.188 50.5936 154.281 50.72 153.157 50.72C151.775 50.72 150.695 50.3088 149.916 49.488C149.14 48.6656 148.749 47.2864 148.749 45.3488V37.6096H146.452V35.0496H148.749V32.2384L152.185 31.2272V35.0496H156.042V37.6128Z" fill="white"/>
<path d="M173.442 42.6032C173.442 44.9632 172.749 46.9008 171.367 48.416C169.918 49.976 167.995 50.7536 165.598 50.7536C163.287 50.7536 161.447 50.0064 160.075 48.512C158.704 47.0176 158.018 45.1312 158.018 42.8576C158.018 40.4784 158.723 38.5296 160.139 37.0144C161.552 35.4976 163.459 34.7392 165.857 34.7392C168.167 34.7392 170.027 35.4864 171.43 36.9824C172.772 38.4336 173.442 40.3072 173.442 42.6032ZM169.812 42.7136C169.812 41.2976 169.502 40.0832 168.873 39.0704C168.139 37.8448 167.091 37.2336 165.732 37.2336C164.326 37.2336 163.257 37.8464 162.524 39.0704C161.895 40.0848 161.585 41.3184 161.585 42.7776C161.585 44.1936 161.895 45.408 162.524 46.4192C163.28 47.6448 164.337 48.256 165.701 48.256C167.037 48.256 168.085 47.632 168.842 46.3872C169.487 45.3552 169.812 44.128 169.812 42.7136Z" fill="white"/>
<path d="M184.814 38.0528C184.468 37.9904 184.098 37.9584 183.711 37.9584C182.48 37.9584 181.529 38.4112 180.859 39.3184C180.276 40.1184 179.984 41.1296 179.984 42.3504V50.4064H176.487L176.52 39.888C176.52 38.1184 176.476 36.5072 176.389 35.0544H179.436L179.564 37.992H179.661C180.03 36.9824 180.613 36.1696 181.41 35.56C182.19 35.0112 183.032 34.7376 183.939 34.7376C184.263 34.7376 184.555 34.76 184.814 34.8V38.0528Z" fill="white"/>
<path d="M200.461 42.0032C200.461 42.6144 200.42 43.1296 200.333 43.5504H189.837C189.878 45.0672 190.385 46.2272 191.36 47.0272C192.245 47.7424 193.388 48.1008 194.793 48.1008C196.347 48.1008 197.765 47.8592 199.04 47.3744L199.588 49.7424C198.098 50.376 196.339 50.6912 194.309 50.6912C191.867 50.6912 189.95 49.9904 188.555 48.5904C187.164 47.1904 186.466 45.3104 186.466 42.952C186.466 40.6368 187.115 38.7088 188.413 37.1712C189.772 35.5296 191.608 34.7088 193.918 34.7088C196.188 34.7088 197.906 35.5296 199.073 37.1712C199.997 38.4752 200.461 40.088 200.461 42.0032ZM197.125 41.1184C197.148 40.1072 196.92 39.2336 196.446 38.496C195.84 37.5472 194.91 37.0736 193.657 37.0736C192.514 37.0736 191.583 37.536 190.873 38.464C190.29 39.2016 189.944 40.0864 189.837 41.1168H197.125V41.1184Z" fill="white"/>
<path d="M80.4924 16.0144C80.4924 17.8976 79.9131 19.3152 78.7562 20.2672C77.6846 21.1456 76.1617 21.5856 74.1892 21.5856C73.2112 21.5856 72.3742 21.544 71.6735 21.4608V11.1712C72.5876 11.0272 73.5722 10.9536 74.6356 10.9536C76.5146 10.9536 77.9308 11.352 78.8858 12.1488C79.9558 13.0496 80.4924 14.3376 80.4924 16.0144ZM78.6791 16.0608C78.6791 14.84 78.3476 13.904 77.6846 13.2512C77.0216 12.6 76.0534 12.2736 74.7784 12.2736C74.2368 12.2736 73.7757 12.3088 73.3933 12.3824V20.2048C73.605 20.2368 73.9923 20.2512 74.5552 20.2512C75.8713 20.2512 76.8871 19.8944 77.6026 19.1808C78.3181 18.4672 78.6791 17.4272 78.6791 16.0608Z" fill="white"/>
<path d="M90.1072 17.6592C90.1072 18.8192 89.7675 19.7696 89.0881 20.5152C88.3759 21.2816 87.4323 21.664 86.2541 21.664C85.1185 21.664 84.2143 21.2976 83.5398 20.5616C82.867 19.8272 82.5306 18.9008 82.5306 17.784C82.5306 16.616 82.8768 15.6576 83.5726 14.9136C84.2684 14.1696 85.2038 13.7968 86.3821 13.7968C87.5177 13.7968 88.4301 14.1632 89.121 14.8976C89.7774 15.6112 90.1072 16.5328 90.1072 17.6592ZM88.3234 17.7136C88.3234 17.0176 88.1692 16.4208 87.8623 15.9232C87.5013 15.3216 86.9876 15.0208 86.3197 15.0208C85.6289 15.0208 85.1037 15.3216 84.7427 15.9232C84.4342 16.4208 84.2816 17.0272 84.2816 17.744C84.2816 18.44 84.4358 19.0368 84.7427 19.5344C85.1152 20.136 85.6338 20.4368 86.3033 20.4368C86.9597 20.4368 87.475 20.1312 87.8459 19.5184C88.1642 19.0112 88.3234 18.4096 88.3234 17.7136Z" fill="white"/>
<path d="M102.999 13.9504L100.579 21.4928H99.0031L98.0005 18.2176C97.7461 17.4 97.5393 16.5872 97.3785 15.7808H97.3473C97.198 16.6096 96.9912 17.4208 96.7254 18.2176L95.6604 21.4928H94.0669L91.7908 13.9504H93.5582L94.4329 17.536C94.6446 18.384 94.8185 19.192 94.958 19.9568H94.9892C95.1172 19.3264 95.3289 18.5232 95.6276 17.552L96.7254 13.952H98.1268L99.1787 17.4752C99.4331 18.3344 99.6399 19.1616 99.799 19.9584H99.8466C99.9631 19.1824 100.139 18.3552 100.372 17.4752L101.31 13.952H102.999V13.9504Z" fill="white"/>
<path d="M111.915 21.4928H110.195V17.1728C110.195 15.8416 109.676 15.176 108.636 15.176C108.126 15.176 107.714 15.3584 107.394 15.7248C107.077 16.0912 106.916 16.5232 106.916 17.0176V21.4912H105.196V16.1056C105.196 15.4432 105.175 14.7248 105.134 13.9472H106.645L106.726 15.1264H106.773C106.974 14.76 107.272 14.4576 107.665 14.216C108.131 13.9344 108.652 13.792 109.224 13.792C109.946 13.792 110.546 14.0192 111.024 14.4752C111.618 15.0336 111.915 15.8672 111.915 16.9744V21.4928Z" fill="white"/>
<path d="M116.657 21.4928H114.939V10.4896H116.657V21.4928Z" fill="white"/>
<path d="M126.782 17.6592C126.782 18.8192 126.443 19.7696 125.763 20.5152C125.051 21.2816 124.106 21.664 122.929 21.664C121.792 21.664 120.888 21.2976 120.215 20.5616C119.542 19.8272 119.206 18.9008 119.206 17.784C119.206 16.616 119.552 15.6576 120.248 14.9136C120.944 14.1696 121.879 13.7968 123.056 13.7968C124.193 13.7968 125.104 14.1632 125.796 14.8976C126.453 15.6112 126.782 16.5328 126.782 17.6592ZM124.997 17.7136C124.997 17.0176 124.843 16.4208 124.536 15.9232C124.177 15.3216 123.661 15.0208 122.995 15.0208C122.302 15.0208 121.777 15.3216 121.418 15.9232C121.109 16.4208 120.957 17.0272 120.957 17.744C120.957 18.44 121.111 19.0368 121.418 19.5344C121.79 20.136 122.309 20.4368 122.979 20.4368C123.635 20.4368 124.149 20.1312 124.519 19.5184C124.839 19.0112 124.997 18.4096 124.997 17.7136Z" fill="white"/>
<path d="M135.106 21.4928H133.562L133.434 20.624H133.386C132.858 21.3168 132.104 21.664 131.126 21.664C130.396 21.664 129.805 21.4352 129.36 20.9808C128.957 20.568 128.755 20.0544 128.755 19.4448C128.755 18.5232 129.149 17.8208 129.941 17.3344C130.732 16.848 131.845 16.6096 133.278 16.6208V16.48C133.278 15.4864 132.743 14.9904 131.671 14.9904C130.908 14.9904 130.235 15.1776 129.654 15.5488L129.305 14.448C130.023 14.0144 130.911 13.7968 131.958 13.7968C133.98 13.7968 134.994 14.8368 134.994 16.9168V19.6944C134.994 20.448 135.032 21.048 135.106 21.4928ZM133.32 18.9008V17.7376C131.423 17.7056 130.475 18.2128 130.475 19.2576C130.475 19.6512 130.583 19.9456 130.805 20.1424C131.026 20.3392 131.308 20.4368 131.645 20.4368C132.022 20.4368 132.375 20.32 132.697 20.088C133.02 19.8544 133.219 19.5584 133.292 19.1952C133.31 19.1136 133.32 19.0144 133.32 18.9008Z" fill="white"/>
<path d="M144.878 21.4928H143.352L143.271 20.2816H143.224C142.737 21.2032 141.906 21.664 140.739 21.664C139.807 21.664 139.031 21.3072 138.416 20.5936C137.8 19.88 137.493 18.9536 137.493 17.816C137.493 16.5952 137.827 15.6064 138.496 14.8512C139.144 14.1472 139.939 13.7952 140.884 13.7952C141.923 13.7952 142.65 14.136 143.063 14.8192H143.096V10.4896H144.817V19.4608C144.817 20.1952 144.837 20.872 144.878 21.4928ZM143.096 18.312V17.0544C143.096 16.8368 143.079 16.6608 143.048 16.5264C142.951 16.1232 142.743 15.784 142.426 15.5104C142.106 15.2368 141.721 15.0992 141.276 15.0992C140.634 15.0992 140.132 15.3472 139.763 15.8448C139.397 16.3424 139.212 16.9776 139.212 17.7536C139.212 18.4992 139.387 19.104 139.74 19.5696C140.113 20.0656 140.615 20.3136 141.243 20.3136C141.808 20.3136 142.259 20.1072 142.602 19.6928C142.933 19.3104 143.096 18.8496 143.096 18.312Z" fill="white"/>
<path d="M159.587 17.6592C159.587 18.8192 159.247 19.7696 158.568 20.5152C157.855 21.2816 156.913 21.664 155.733 21.664C154.6 21.664 153.695 21.2976 153.019 20.5616C152.346 19.8272 152.01 18.9008 152.01 17.784C152.01 16.616 152.356 15.6576 153.052 14.9136C153.748 14.1696 154.683 13.7968 155.863 13.7968C156.997 13.7968 157.911 14.1632 158.6 14.8976C159.257 15.6112 159.587 16.5328 159.587 17.6592ZM157.804 17.7136C157.804 17.0176 157.65 16.4208 157.343 15.9232C156.981 15.3216 156.469 15.0208 155.799 15.0208C155.11 15.0208 154.585 15.3216 154.222 15.9232C153.914 16.4208 153.761 17.0272 153.761 17.744C153.761 18.44 153.915 19.0368 154.222 19.5344C154.595 20.136 155.113 20.4368 155.783 20.4368C156.439 20.4368 156.956 20.1312 157.327 19.5184C157.644 19.0112 157.804 18.4096 157.804 17.7136Z" fill="white"/>
<path d="M168.834 21.4928H167.116V17.1728C167.116 15.8416 166.597 15.176 165.555 15.176C165.045 15.176 164.633 15.3584 164.314 15.7248C163.996 16.0912 163.837 16.5232 163.837 17.0176V21.4912H162.115V16.1056C162.115 15.4432 162.096 14.7248 162.055 13.9472H163.564L163.645 15.1264H163.692C163.894 14.76 164.193 14.4576 164.583 14.216C165.051 13.9344 165.571 13.792 166.144 13.792C166.865 13.792 167.465 14.0192 167.943 14.4752C168.538 15.0336 168.834 15.8672 168.834 16.9744V21.4928Z" fill="white"/>
<path d="M180.408 15.2064H178.514V18.8704C178.514 19.8016 178.851 20.2672 179.517 20.2672C179.825 20.2672 180.081 20.2416 180.283 20.1888L180.327 21.4608C179.988 21.5856 179.541 21.648 178.992 21.648C178.312 21.648 177.784 21.4464 177.402 21.0432C177.018 20.64 176.827 19.9616 176.827 19.0096V15.2064H175.697V13.9504H176.827V12.568L178.513 12.072V13.9488H180.406V15.2064H180.408Z" fill="white"/>
<path d="M189.512 21.4928H187.791V17.2048C187.791 15.8528 187.272 15.176 186.234 15.176C185.436 15.176 184.891 15.568 184.593 16.352C184.542 16.5168 184.512 16.7184 184.512 16.9552V21.4912H182.794V10.4896H184.512V15.0352H184.545C185.086 14.208 185.863 13.7952 186.869 13.7952C187.581 13.7952 188.17 14.0224 188.638 14.4784C189.22 15.0464 189.512 15.8912 189.512 17.008V21.4928Z" fill="white"/>
<path d="M198.904 17.3648C198.904 17.6656 198.881 17.9184 198.84 18.1248H193.682C193.705 18.8704 193.951 19.4384 194.429 19.832C194.865 20.184 195.428 20.36 196.117 20.36C196.881 20.36 197.576 20.2416 198.203 20.0032L198.472 21.168C197.739 21.4784 196.876 21.6336 195.876 21.6336C194.678 21.6336 193.735 21.2896 193.052 20.6016C192.366 19.9136 192.026 18.9904 192.026 17.832C192.026 16.6944 192.343 15.7472 192.981 14.992C193.648 14.1856 194.549 13.7824 195.686 13.7824C196.798 13.7824 197.644 14.1856 198.215 14.992C198.676 15.632 198.904 16.424 198.904 17.3648ZM197.263 16.9312C197.276 16.4336 197.163 16.0048 196.93 15.6432C196.631 15.1776 196.177 14.944 195.561 14.944C195 14.944 194.542 15.1712 194.193 15.6272C193.907 15.9904 193.738 16.424 193.682 16.9312H197.263Z" fill="white"/>
</svg>
