<svg width="24" height="24" viewBox="0 0 24 24" fill="none" xmlns="http://www.w3.org/2000/svg">
<path d="M19.1266 11.6966C19.1266 11.463 19.0287 11.237 18.8554 11.0713L13.9059 6.12179C13.71 5.93345 13.5066 5.85059 13.2957 5.85059C12.8135 5.85059 12.467 6.18959 12.467 6.64914C12.467 6.89021 12.5649 7.09361 12.7156 7.24428L14.4106 8.96191L16.5954 10.9583L14.8476 10.8528H5.71701C5.21226 10.8528 4.86572 11.1994 4.86572 11.6966C4.86572 12.1862 5.21226 12.5328 5.71701 12.5328H14.8476L16.5954 12.4273L14.4106 14.4237L12.7156 16.1413C12.5649 16.292 12.467 16.4954 12.467 16.7365C12.467 17.196 12.8135 17.535 13.2957 17.535C13.5066 17.535 13.71 17.4521 13.8908 17.2789L18.8554 12.3143C19.0287 12.1486 19.1266 11.9226 19.1266 11.6966Z" fill="#FAB300"/>
</svg>
