<svg width="24" height="24" viewBox="0 0 24 24" fill="none" xmlns="http://www.w3.org/2000/svg">
<path d="M4.86572 11.6966C4.86572 11.9226 4.96366 12.1486 5.13693 12.3143L10.109 17.2789C10.2898 17.4521 10.4857 17.535 10.7042 17.535C11.1788 17.535 11.5253 17.196 11.5253 16.7365C11.5253 16.4954 11.4349 16.292 11.2767 16.1413L9.58168 14.4237L7.39697 12.4273L9.15227 12.5328H18.2829C18.7801 12.5328 19.1266 12.1862 19.1266 11.6966C19.1266 11.1994 18.7801 10.8528 18.2829 10.8528H9.15227L7.40451 10.9583L9.58168 8.96191L11.2767 7.24428C11.4349 7.09361 11.5253 6.89021 11.5253 6.64914C11.5253 6.18959 11.1788 5.85059 10.7042 5.85059C10.4857 5.85059 10.2823 5.93345 10.0864 6.12179L5.13693 11.0713C4.96366 11.237 4.86572 11.463 4.86572 11.6966Z" fill="#FAB300"/>
</svg>
